# xmcd
# 
# Track frame offsets:
#     187
#     21367
#     47525
#     71462
#     91407
#     113762
#     133707
#     152005
#     172080
# 
# Disc length: 2596
# 
# Revision: 3
# Processed by: cddbd v1.5.2PL0 Copyright (c) Steve Scherf et al.
# Submitted via: fre:ac v1.0.27
# 
DISCID=720a2209
DTITLE=Bruce Hornsby and The Range - The Way It Is
DYEAR=1986
DGENRE=Rock
TTITLE0=On The Western Skyline
TTITLE1=Every Little Kiss
TTITLE2=Mandolin Rain
TTITLE3=The Long Race
TTITLE4=The Way It Is
TTITLE5=Down The Road Tonight
TTITLE6=The Wild Frontier
TTITLE7=The River Runs Low
TTITLE8=The Red Plains
EXTD=YEAR: 1986
EXTT0=
EXTT1=
EXTT2=
EXTT3=
EXTT4=
EXTT5=
EXTT6=
EXTT7=
EXTT8=
PLAYORDER=
